<?xml version="1.0" standalone="no"?>
<!DOCTYPE svg PUBLIC "-//W3C//DTD SVG 20010904//EN"
 "http://www.w3.org/TR/2001/REC-SVG-20010904/DTD/svg10.dtd">
<svg version="1.0" xmlns="http://www.w3.org/2000/svg"
 width="2000.000000pt" height="2000.000000pt" viewBox="0 0 2000.000000 2000.000000"
 preserveAspectRatio="xMidYMid meet">
<metadata>
Created by potrace 1.14, written by Peter Selinger 2001-2017
</metadata>
<g transform="translate(0.000000,2000.000000) scale(0.100000,-0.100000)"
fill="#000000" stroke="none">
<path d="M9807 17264 c-1 -1 -84 -5 -184 -8 -100 -4 -192 -9 -205 -11 -12 -2
-57 -6 -98 -10 -105 -8 -197 -18 -365 -41 -60 -8 -132 -19 -160 -24 -27 -6
-98 -19 -157 -30 -1011 -186 -1957 -609 -2693 -1204 -263 -213 -548 -496 -780
-776 -48 -58 -96 -116 -107 -128 -133 -159 -441 -610 -561 -821 -152 -270
-319 -599 -398 -787 l-33 -81 -61 45 c-82 61 -212 121 -320 148 -78 20 -110
22 -245 19 -167 -4 -177 -5 -284 -30 -294 -69 -585 -235 -751 -429 -33 -38
-114 -126 -179 -195 -299 -316 -556 -701 -660 -989 -30 -84 -71 -245 -82 -317
-3 -27 -8 -59 -11 -70 -9 -48 -17 -191 -17 -315 0 -193 8 -275 51 -550 23
-151 136 -534 221 -753 l38 -98 -18 -107 c-23 -142 -34 -185 -68 -297 -64
-206 -201 -483 -340 -686 -20 -28 -163 -258 -190 -304 -306 -522 -516 -937
-686 -1357 -25 -62 -50 -124 -54 -138 -5 -14 -20 -56 -35 -95 -95 -253 -189
-580 -239 -835 -28 -141 -34 -179 -51 -305 -4 -33 -9 -69 -11 -80 -24 -133
-23 -676 1 -807 3 -13 7 -34 10 -48 2 -14 7 -45 11 -70 3 -24 7 -47 9 -50 2
-3 6 -21 9 -40 42 -253 222 -682 368 -875 55 -73 139 -178 168 -209 275 -300
618 -523 1001 -650 59 -19 117 -37 130 -40 13 -2 52 -12 86 -21 34 -8 74 -17
90 -20 92 -12 130 -18 148 -22 47 -12 424 -10 515 2 188 27 447 99 600 168
266 119 448 220 710 392 172 114 500 355 550 405 3 3 41 34 85 69 44 36 87 72
96 80 9 9 29 27 45 40 69 58 105 89 194 170 299 272 711 684 975 976 44 48 85
93 90 99 6 6 44 49 84 96 41 47 77 87 80 90 4 3 18 19 32 36 l25 31 164 -82
c147 -72 490 -225 506 -225 3 0 20 -6 37 -14 148 -65 562 -197 832 -265 228
-57 711 -155 870 -176 28 -4 52 -9 55 -10 3 -2 33 -6 65 -10 33 -3 67 -8 75
-10 8 -2 42 -7 75 -11 33 -3 68 -8 78 -10 10 -2 46 -6 80 -9 34 -3 73 -8 87
-10 14 -3 59 -7 100 -10 41 -3 91 -8 110 -10 246 -27 914 -27 1205 -1 22 2 72
7 110 10 179 16 362 37 525 61 14 2 45 7 70 10 25 3 88 13 140 21 52 9 107 17
123 20 15 2 39 6 55 9 32 5 276 52 311 59 236 50 433 96 536 127 17 5 77 23
135 40 369 108 797 281 1143 462 82 42 151 77 155 76 4 0 51 -53 105 -117 54
-64 114 -135 133 -157 20 -22 47 -53 62 -70 33 -39 181 -205 202 -226 8 -9 69
-74 135 -144 987 -1056 1936 -1743 2665 -1930 105 -27 122 -30 260 -50 90 -12
456 -14 505 -2 11 3 43 8 70 11 268 35 647 175 886 326 87 56 227 155 244 174
6 7 24 22 40 34 55 43 195 184 272 276 72 85 216 295 230 334 3 9 11 24 18 32
26 33 108 228 154 367 45 133 90 319 105 428 26 198 30 245 30 460 1 158 -10
401 -19 415 -2 3 -6 34 -9 70 -4 36 -11 88 -16 115 -5 28 -12 66 -15 85 -63
386 -242 951 -445 1405 -17 39 -43 97 -58 130 -45 103 -286 575 -341 668 -28
49 -51 90 -51 92 0 14 -360 599 -406 660 -32 43 -144 263 -191 375 -64 151
-101 275 -132 435 -19 94 -20 118 -6 144 54 105 169 472 200 636 20 105 35
198 40 250 3 33 8 74 10 90 6 43 7 402 1 450 -2 22 -8 69 -11 105 -3 36 -8 72
-10 80 -2 8 -7 31 -10 50 -5 32 -19 104 -30 155 -59 282 -231 691 -410 975
-51 81 -157 238 -173 256 -9 10 -29 35 -44 55 -30 40 -133 152 -228 247 -58
59 -205 174 -270 211 -166 96 -344 160 -545 195 -119 21 -348 15 -448 -12
-155 -42 -335 -150 -401 -240 l-23 -32 -59 137 c-109 256 -289 610 -443 868
-149 252 -418 643 -546 792 -21 25 -38 45 -88 106 -28 34 -56 67 -62 73 -5 6
-39 44 -74 85 -148 170 -428 437 -660 631 -67 57 -302 226 -416 300 -219 144
-552 326 -775 426 -25 11 -65 29 -90 40 -497 222 -1205 414 -1795 487 -27 4
-61 8 -74 10 -24 4 -224 23 -316 30 -154 12 -688 26 -698 19z m6498 -9330
c107 -56 166 -69 310 -69 92 1 143 5 175 17 102 36 101 36 138 -34 166 -313
417 -828 517 -1058 21 -47 47 -107 60 -135 12 -27 28 -68 35 -90 7 -22 16 -47
20 -56 13 -27 59 -220 69 -289 13 -96 11 -257 -4 -325 -24 -111 -47 -156 -111
-221 -53 -53 -69 -63 -127 -79 -103 -28 -290 -7 -402 44 -11 5 -38 17 -60 26
-114 47 -328 183 -406 255 -8 8 -40 35 -70 60 -102 84 -324 313 -499 515 -150
172 -303 331 -388 401 l-31 26 59 88 c126 188 304 511 387 705 32 75 119 295
132 336 l12 36 62 -61 c34 -34 89 -75 122 -92z m-12444 29 c21 -64 118 -290
175 -409 84 -174 187 -354 295 -518 l99 -149 -123 -121 c-67 -67 -145 -147
-172 -180 -28 -32 -55 -64 -61 -70 -5 -6 -43 -49 -84 -96 -495 -568 -925 -849
-1280 -836 -139 5 -230 64 -288 188 -62 132 -73 285 -37 501 31 179 95 351
271 726 24 51 44 95 44 98 0 11 402 806 415 821 1 1 42 -9 91 -24 112 -33 275
-41 374 -18 72 16 200 76 226 105 26 28 41 23 55 -18z"/>
</g>
</svg>
